<mxfile host="app.diagrams.net" agent="Mozilla/5.0 (Macintosh; Intel Mac OS X 10_15_7) AppleWebKit/537.36 (KHTML, like Gecko) Chrome/134.0.0.0 Safari/537.36" version="26.1.3">
  <diagram name="Page-1" id="e3a06f82-3646-2815-327d-82caf3d4e204">
    <mxGraphModel dx="1837" dy="1105" grid="1" gridSize="10" guides="1" tooltips="1" connect="1" arrows="1" fold="1" page="1" pageScale="1.5" pageWidth="1169" pageHeight="826" background="none" math="0" shadow="0">
      <root>
        <mxCell id="0" style=";html=1;" />
        <mxCell id="1" style=";html=1;" parent="0" />
        <mxCell id="6a7d8f32e03d9370-61" value="服务器架构" style="whiteSpace=wrap;html=1;fillColor=#f8cecc;fontSize=18;strokeColor=none;verticalAlign=top;" parent="1" vertex="1">
          <mxGeometry x="1000" y="110" width="538.75" height="511" as="geometry" />
        </mxCell>
        <mxCell id="6a7d8f32e03d9370-59" value="" style="whiteSpace=wrap;html=1;fillColor=#EDEDED;fontSize=14;strokeColor=none;verticalAlign=top;" parent="1" vertex="1">
          <mxGeometry x="599" y="98" width="280" height="752" as="geometry" />
        </mxCell>
        <mxCell id="6a7d8f32e03d9370-58" value="办公网络" style="whiteSpace=wrap;html=1;fillColor=#dae8fc;fontSize=18;strokeColor=none;verticalAlign=top;" parent="1" vertex="1">
          <mxGeometry x="240" y="806" width="310" height="318" as="geometry" />
        </mxCell>
        <mxCell id="6a7d8f32e03d9370-57" value="&lt;font&gt;生产现场&lt;/font&gt;" style="whiteSpace=wrap;html=1;fillColor=#FFD470;gradientColor=none;fontSize=18;strokeColor=none;verticalAlign=top;" parent="1" vertex="1">
          <mxGeometry x="242" y="98" width="308" height="680" as="geometry" />
        </mxCell>
        <mxCell id="6a7d8f32e03d9370-36" style="edgeStyle=none;rounded=0;html=1;startSize=10;endSize=10;jettySize=auto;orthogonalLoop=1;fontSize=14;endArrow=none;endFill=0;strokeWidth=2;entryX=0.127;entryY=0.659;entryDx=0;entryDy=0;entryPerimeter=0;" parent="1" source="6a7d8f32e03d9370-1" target="FucfDuxgneH0r0DStQZ--17" edge="1">
          <mxGeometry relative="1" as="geometry">
            <mxPoint x="640" y="761.4308431075683" as="targetPoint" />
          </mxGeometry>
        </mxCell>
        <mxCell id="FucfDuxgneH0r0DStQZ--12" value="" style="edgeStyle=orthogonalEdgeStyle;rounded=0;orthogonalLoop=1;jettySize=auto;html=1;" edge="1" parent="1" source="6a7d8f32e03d9370-1" target="6a7d8f32e03d9370-6">
          <mxGeometry relative="1" as="geometry" />
        </mxCell>
        <mxCell id="6a7d8f32e03d9370-1" value="办公电脑" style="verticalLabelPosition=bottom;aspect=fixed;html=1;verticalAlign=top;strokeColor=none;shape=mxgraph.citrix.laptop_2;fillColor=#66B2FF;gradientColor=#0066CC;fontSize=14;" parent="1" vertex="1">
          <mxGeometry x="413.4999999999999" y="870" width="116" height="86.5" as="geometry" />
        </mxCell>
        <mxCell id="6a7d8f32e03d9370-35" style="edgeStyle=none;rounded=0;html=1;startSize=10;endSize=10;jettySize=auto;orthogonalLoop=1;fontSize=14;endArrow=none;endFill=0;strokeWidth=2;entryX=0.332;entryY=0.8;entryDx=0;entryDy=0;entryPerimeter=0;" parent="1" source="6a7d8f32e03d9370-2" target="FucfDuxgneH0r0DStQZ--16" edge="1">
          <mxGeometry relative="1" as="geometry">
            <mxPoint x="640" y="490.46070910126605" as="targetPoint" />
          </mxGeometry>
        </mxCell>
        <mxCell id="6a7d8f32e03d9370-2" value="Client" style="verticalLabelPosition=bottom;aspect=fixed;html=1;verticalAlign=top;strokeColor=none;shape=mxgraph.citrix.laptop_2;fillColor=#66B2FF;gradientColor=#0066CC;fontSize=18;" parent="1" vertex="1">
          <mxGeometry x="415.4999999999999" y="649" width="116" height="86.5" as="geometry" />
        </mxCell>
        <mxCell id="6a7d8f32e03d9370-3" value="MES工位" style="verticalLabelPosition=bottom;aspect=fixed;html=1;verticalAlign=top;strokeColor=none;shape=mxgraph.citrix.desktop;fillColor=#66B2FF;gradientColor=#0066CC;fontSize=18;" parent="1" vertex="1">
          <mxGeometry x="428.99999999999994" y="483.99999999999994" width="89" height="98" as="geometry" />
        </mxCell>
        <mxCell id="FucfDuxgneH0r0DStQZ--5" value="" style="edgeStyle=orthogonalEdgeStyle;rounded=0;orthogonalLoop=1;jettySize=auto;html=1;" edge="1" parent="1" source="6a7d8f32e03d9370-4" target="6a7d8f32e03d9370-3">
          <mxGeometry relative="1" as="geometry" />
        </mxCell>
        <mxCell id="6a7d8f32e03d9370-4" value="MES工位" style="verticalLabelPosition=bottom;aspect=fixed;html=1;verticalAlign=top;strokeColor=none;shape=mxgraph.citrix.desktop;fillColor=#66B2FF;gradientColor=#0066CC;fontSize=18;" parent="1" vertex="1">
          <mxGeometry x="428.99999999999994" y="320.00000000000006" width="89" height="98" as="geometry" />
        </mxCell>
        <mxCell id="6a7d8f32e03d9370-32" style="edgeStyle=none;rounded=0;html=1;startSize=10;endSize=10;jettySize=auto;orthogonalLoop=1;fontSize=14;endArrow=none;endFill=0;strokeWidth=2;entryX=0.236;entryY=0.412;entryDx=0;entryDy=0;entryPerimeter=0;" parent="1" source="6a7d8f32e03d9370-5" target="FucfDuxgneH0r0DStQZ--15" edge="1">
          <mxGeometry relative="1" as="geometry">
            <mxPoint x="637" y="201.13687150837995" as="targetPoint" />
          </mxGeometry>
        </mxCell>
        <mxCell id="FucfDuxgneH0r0DStQZ--4" value="" style="edgeStyle=orthogonalEdgeStyle;rounded=0;orthogonalLoop=1;jettySize=auto;html=1;" edge="1" parent="1" source="6a7d8f32e03d9370-5" target="6a7d8f32e03d9370-4">
          <mxGeometry relative="1" as="geometry" />
        </mxCell>
        <mxCell id="6a7d8f32e03d9370-5" value="MES工位" style="verticalLabelPosition=bottom;aspect=fixed;html=1;verticalAlign=top;strokeColor=none;shape=mxgraph.citrix.desktop;fillColor=#66B2FF;gradientColor=#0066CC;fontSize=18;" parent="1" vertex="1">
          <mxGeometry x="428.00000000000006" y="156.00000000000006" width="89" height="98" as="geometry" />
        </mxCell>
        <mxCell id="6a7d8f32e03d9370-37" style="edgeStyle=none;rounded=0;html=1;startSize=10;endSize=10;jettySize=auto;orthogonalLoop=1;fontSize=14;endArrow=none;endFill=0;strokeWidth=2;entryX=0.286;entryY=0.835;entryDx=0;entryDy=0;entryPerimeter=0;" parent="1" source="6a7d8f32e03d9370-6" target="FucfDuxgneH0r0DStQZ--17" edge="1">
          <mxGeometry relative="1" as="geometry">
            <mxPoint x="642.1331208053689" y="778" as="targetPoint" />
          </mxGeometry>
        </mxCell>
        <mxCell id="6a7d8f32e03d9370-6" value="手持端" style="verticalLabelPosition=bottom;aspect=fixed;html=1;verticalAlign=top;strokeColor=none;shape=mxgraph.citrix.pda;fillColor=#66B2FF;gradientColor=#0066CC;fontSize=14;" parent="1" vertex="1">
          <mxGeometry x="456.50000000000006" y="1008" width="30" height="61" as="geometry" />
        </mxCell>
        <mxCell id="6a7d8f32e03d9370-39" style="edgeStyle=none;rounded=0;html=1;startSize=10;endSize=10;jettySize=auto;orthogonalLoop=1;fontSize=14;endArrow=none;endFill=0;strokeWidth=2;" parent="1" target="6a7d8f32e03d9370-21" edge="1">
          <mxGeometry relative="1" as="geometry">
            <mxPoint x="737" y="846" as="targetPoint" />
            <mxPoint x="725.21" y="705.6056236006848" as="sourcePoint" />
          </mxGeometry>
        </mxCell>
        <mxCell id="6a7d8f32e03d9370-40" style="edgeStyle=none;rounded=0;html=1;startSize=10;endSize=10;jettySize=auto;orthogonalLoop=1;fontSize=14;endArrow=none;endFill=0;strokeWidth=2;entryX=0.279;entryY=0.446;entryDx=0;entryDy=0;entryPerimeter=0;" parent="1" target="6a7d8f32e03d9370-20" edge="1">
          <mxGeometry relative="1" as="geometry">
            <mxPoint x="725.21" y="465.02938953966304" as="sourcePoint" />
          </mxGeometry>
        </mxCell>
        <mxCell id="6a7d8f32e03d9370-43" style="edgeStyle=none;rounded=0;html=1;startSize=10;endSize=10;jettySize=auto;orthogonalLoop=1;fontSize=14;endArrow=none;endFill=0;strokeWidth=2;" parent="1" target="6a7d8f32e03d9370-17" edge="1">
          <mxGeometry relative="1" as="geometry">
            <mxPoint x="713" y="201.1255144032923" as="sourcePoint" />
          </mxGeometry>
        </mxCell>
        <mxCell id="6a7d8f32e03d9370-13" value="核心&lt;span style=&quot;background-color: transparent; color: light-dark(rgb(0, 0, 0), rgb(255, 255, 255));&quot;&gt;层交换机&lt;/span&gt;" style="verticalLabelPosition=bottom;aspect=fixed;html=1;verticalAlign=top;strokeColor=none;shape=mxgraph.citrix.router;fillColor=#66B2FF;gradientColor=#0066CC;fontSize=18;" parent="1" vertex="1">
          <mxGeometry x="880" y="334.5" width="55" height="36.5" as="geometry" />
        </mxCell>
        <mxCell id="6a7d8f32e03d9370-44" style="edgeStyle=none;rounded=0;html=1;startSize=10;endSize=10;jettySize=auto;orthogonalLoop=1;fontSize=14;endArrow=none;endFill=0;strokeWidth=2;" parent="1" source="6a7d8f32e03d9370-17" target="6a7d8f32e03d9370-13" edge="1">
          <mxGeometry relative="1" as="geometry" />
        </mxCell>
        <mxCell id="6a7d8f32e03d9370-17" value="" style="verticalLabelPosition=bottom;aspect=fixed;html=1;verticalAlign=top;strokeColor=none;shape=mxgraph.citrix.firewall;fillColor=#66B2FF;gradientColor=#0066CC;fontSize=14;" parent="1" vertex="1">
          <mxGeometry x="780" y="158.5" width="75" height="93" as="geometry" />
        </mxCell>
        <mxCell id="6a7d8f32e03d9370-47" style="edgeStyle=none;rounded=0;html=1;startSize=10;endSize=10;jettySize=auto;orthogonalLoop=1;fontSize=14;endArrow=none;endFill=0;strokeWidth=2;" parent="1" source="6a7d8f32e03d9370-20" target="6a7d8f32e03d9370-13" edge="1">
          <mxGeometry relative="1" as="geometry" />
        </mxCell>
        <mxCell id="6a7d8f32e03d9370-20" value="" style="verticalLabelPosition=bottom;aspect=fixed;html=1;verticalAlign=top;strokeColor=none;shape=mxgraph.citrix.firewall;fillColor=#66B2FF;gradientColor=#0066CC;fontSize=14;" parent="1" vertex="1">
          <mxGeometry x="770" y="382.5" width="75" height="93" as="geometry" />
        </mxCell>
        <mxCell id="6a7d8f32e03d9370-48" style="edgeStyle=none;rounded=0;html=1;startSize=10;endSize=10;jettySize=auto;orthogonalLoop=1;fontSize=14;endArrow=none;endFill=0;strokeWidth=2;" parent="1" source="6a7d8f32e03d9370-21" target="6a7d8f32e03d9370-13" edge="1">
          <mxGeometry relative="1" as="geometry" />
        </mxCell>
        <mxCell id="6a7d8f32e03d9370-21" value="" style="verticalLabelPosition=bottom;aspect=fixed;html=1;verticalAlign=top;strokeColor=none;shape=mxgraph.citrix.firewall;fillColor=#66B2FF;gradientColor=#0066CC;fontSize=14;" parent="1" vertex="1">
          <mxGeometry x="770" y="582" width="75" height="93" as="geometry" />
        </mxCell>
        <mxCell id="6a7d8f32e03d9370-23" value="" style="verticalLabelPosition=bottom;aspect=fixed;html=1;verticalAlign=top;strokeColor=none;shape=mxgraph.citrix.home_office;fillColor=#66B2FF;gradientColor=#0066CC;fontSize=14;" parent="1" vertex="1">
          <mxGeometry x="270" y="898" width="80" height="55.5" as="geometry" />
        </mxCell>
        <mxCell id="6a7d8f32e03d9370-62" value="网络和服务器架构" style="text;strokeColor=none;fillColor=none;html=1;fontSize=24;fontStyle=1;verticalAlign=middle;align=center;" parent="1" vertex="1">
          <mxGeometry x="499" y="30" width="861" height="40" as="geometry" />
        </mxCell>
        <mxCell id="FucfDuxgneH0r0DStQZ--13" value="手持端" style="verticalLabelPosition=bottom;aspect=fixed;html=1;verticalAlign=top;strokeColor=none;shape=mxgraph.citrix.pda;fillColor=#66B2FF;gradientColor=#0066CC;fontSize=14;" vertex="1" parent="1">
          <mxGeometry x="363.00000000000006" y="656.5" width="30" height="61" as="geometry" />
        </mxCell>
        <mxCell id="FucfDuxgneH0r0DStQZ--15" value="汇聚层交换机" style="verticalLabelPosition=bottom;aspect=fixed;html=1;verticalAlign=top;strokeColor=none;shape=mxgraph.citrix.switch;fillColor=#66B2FF;gradientColor=#0066CC;fontSize=18;" vertex="1" parent="1">
          <mxGeometry x="640" y="184.25" width="92" height="41.5" as="geometry" />
        </mxCell>
        <mxCell id="FucfDuxgneH0r0DStQZ--16" value="汇聚层交换机" style="verticalLabelPosition=bottom;aspect=fixed;html=1;verticalAlign=top;strokeColor=none;shape=mxgraph.citrix.switch;fillColor=#66B2FF;gradientColor=#0066CC;fontSize=18;" vertex="1" parent="1">
          <mxGeometry x="636.61" y="450" width="92" height="41.5" as="geometry" />
        </mxCell>
        <mxCell id="FucfDuxgneH0r0DStQZ--17" value="汇聚层交换机" style="verticalLabelPosition=bottom;aspect=fixed;html=1;verticalAlign=top;strokeColor=none;shape=mxgraph.citrix.switch;fillColor=#66B2FF;gradientColor=#0066CC;fontSize=18;" vertex="1" parent="1">
          <mxGeometry x="650" y="694" width="92" height="41.5" as="geometry" />
        </mxCell>
        <mxCell id="FucfDuxgneH0r0DStQZ--19" value="MES数据库服务器" style="verticalLabelPosition=bottom;aspect=fixed;html=1;verticalAlign=top;strokeColor=none;shape=mxgraph.citrix.chassis;fillColor=#66B2FF;gradientColor=#0066CC;fontSize=16;" vertex="1" parent="1">
          <mxGeometry x="1043.75" y="341" width="66.23" height="85.5" as="geometry" />
        </mxCell>
        <mxCell id="FucfDuxgneH0r0DStQZ--20" value="MES应用服务器" style="verticalLabelPosition=bottom;aspect=fixed;html=1;verticalAlign=top;strokeColor=none;shape=mxgraph.citrix.proxy_server;fillColor=#66B2FF;gradientColor=#0066CC;fontSize=16;" vertex="1" parent="1">
          <mxGeometry x="1049.25" y="170" width="76.5" height="90" as="geometry" />
        </mxCell>
        <mxCell id="FucfDuxgneH0r0DStQZ--22" value="数据中台&lt;div&gt;数据库服务器&lt;/div&gt;" style="verticalLabelPosition=bottom;aspect=fixed;html=1;verticalAlign=top;strokeColor=none;shape=mxgraph.citrix.chassis;fillColor=#66B2FF;gradientColor=#0066CC;fontSize=16;" vertex="1" parent="1">
          <mxGeometry x="1365.37" y="328" width="66.23" height="85.5" as="geometry" />
        </mxCell>
        <mxCell id="FucfDuxgneH0r0DStQZ--24" value="" style="edgeStyle=orthogonalEdgeStyle;rounded=0;orthogonalLoop=1;jettySize=auto;html=1;" edge="1" parent="1" source="FucfDuxgneH0r0DStQZ--23" target="FucfDuxgneH0r0DStQZ--22">
          <mxGeometry relative="1" as="geometry" />
        </mxCell>
        <mxCell id="FucfDuxgneH0r0DStQZ--23" value="数据中台&lt;div&gt;应用服务器&lt;/div&gt;" style="verticalLabelPosition=bottom;aspect=fixed;html=1;verticalAlign=top;strokeColor=none;shape=mxgraph.citrix.proxy_server;fillColor=#66B2FF;gradientColor=#0066CC;fontSize=16;" vertex="1" parent="1">
          <mxGeometry x="1360.23" y="151" width="76.5" height="90" as="geometry" />
        </mxCell>
        <mxCell id="FucfDuxgneH0r0DStQZ--25" style="edgeStyle=orthogonalEdgeStyle;rounded=0;orthogonalLoop=1;jettySize=auto;html=1;entryX=0.666;entryY=0.15;entryDx=0;entryDy=0;entryPerimeter=0;" edge="1" parent="1" source="FucfDuxgneH0r0DStQZ--20" target="FucfDuxgneH0r0DStQZ--19">
          <mxGeometry relative="1" as="geometry" />
        </mxCell>
        <mxCell id="FucfDuxgneH0r0DStQZ--26" value="备份服务器" style="verticalLabelPosition=bottom;aspect=fixed;html=1;verticalAlign=top;strokeColor=none;shape=mxgraph.citrix.proxy_server;fillColor=#66B2FF;gradientColor=#0066CC;fontSize=16;" vertex="1" parent="1">
          <mxGeometry x="1208.25" y="261" width="76.5" height="90" as="geometry" />
        </mxCell>
        <mxCell id="FucfDuxgneH0r0DStQZ--28" value="" style="edgeStyle=orthogonalEdgeStyle;rounded=0;orthogonalLoop=1;jettySize=auto;html=1;" edge="1" parent="1" target="FucfDuxgneH0r0DStQZ--26">
          <mxGeometry relative="1" as="geometry">
            <mxPoint x="1258.8409090909086" y="369" as="sourcePoint" />
          </mxGeometry>
        </mxCell>
        <mxCell id="FucfDuxgneH0r0DStQZ--34" style="edgeStyle=none;rounded=0;html=1;startSize=10;endSize=10;jettySize=auto;orthogonalLoop=1;fontSize=14;endArrow=none;endFill=0;strokeWidth=2;exitX=0.841;exitY=0.562;exitDx=0;exitDy=0;exitPerimeter=0;" edge="1" parent="1" source="FucfDuxgneH0r0DStQZ--20" target="FucfDuxgneH0r0DStQZ--26">
          <mxGeometry relative="1" as="geometry">
            <mxPoint x="1148.75" y="142" as="sourcePoint" />
            <mxPoint x="1253.75" y="453" as="targetPoint" />
          </mxGeometry>
        </mxCell>
        <mxCell id="FucfDuxgneH0r0DStQZ--36" style="edgeStyle=none;rounded=0;html=1;startSize=10;endSize=10;jettySize=auto;orthogonalLoop=1;fontSize=14;endArrow=none;endFill=0;strokeWidth=2;exitX=0.181;exitY=0.793;exitDx=0;exitDy=0;exitPerimeter=0;entryX=0.79;entryY=0.278;entryDx=0;entryDy=0;entryPerimeter=0;" edge="1" parent="1" source="FucfDuxgneH0r0DStQZ--23" target="FucfDuxgneH0r0DStQZ--26">
          <mxGeometry relative="1" as="geometry">
            <mxPoint x="1109.75" y="231" as="sourcePoint" />
            <mxPoint x="1218.75" y="294" as="targetPoint" />
          </mxGeometry>
        </mxCell>
        <mxCell id="FucfDuxgneH0r0DStQZ--37" style="edgeStyle=none;rounded=0;html=1;startSize=10;endSize=10;jettySize=auto;orthogonalLoop=1;fontSize=14;endArrow=none;endFill=0;strokeWidth=2;exitX=0.269;exitY=0.867;exitDx=0;exitDy=0;exitPerimeter=0;entryX=0.79;entryY=0.278;entryDx=0;entryDy=0;entryPerimeter=0;" edge="1" parent="1" source="FucfDuxgneH0r0DStQZ--22">
          <mxGeometry relative="1" as="geometry">
            <mxPoint x="1383.75" y="232" as="sourcePoint" />
            <mxPoint x="1278.75" y="296" as="targetPoint" />
          </mxGeometry>
        </mxCell>
        <mxCell id="FucfDuxgneH0r0DStQZ--38" style="edgeStyle=none;rounded=0;html=1;startSize=10;endSize=10;jettySize=auto;orthogonalLoop=1;fontSize=14;endArrow=none;endFill=0;strokeWidth=2;" edge="1" parent="1" source="FucfDuxgneH0r0DStQZ--19">
          <mxGeometry relative="1" as="geometry">
            <mxPoint x="1109.75" y="231" as="sourcePoint" />
            <mxPoint x="1218.75" y="294" as="targetPoint" />
          </mxGeometry>
        </mxCell>
        <mxCell id="FucfDuxgneH0r0DStQZ--40" value="数据采集服务器" style="verticalLabelPosition=bottom;aspect=fixed;html=1;verticalAlign=top;strokeColor=none;shape=mxgraph.citrix.proxy_server;fillColor=#66B2FF;gradientColor=#0066CC;fontSize=16;" vertex="1" parent="1">
          <mxGeometry x="1198.75" y="426.5" width="76.5" height="90" as="geometry" />
        </mxCell>
        <mxCell id="FucfDuxgneH0r0DStQZ--42" value="" style="edgeStyle=segmentEdgeStyle;endArrow=classic;html=1;curved=0;rounded=0;endSize=8;startSize=8;exitX=0.94;exitY=0.801;exitDx=0;exitDy=0;exitPerimeter=0;" edge="1" parent="1" source="FucfDuxgneH0r0DStQZ--40" target="FucfDuxgneH0r0DStQZ--22">
          <mxGeometry width="50" height="50" relative="1" as="geometry">
            <mxPoint x="1348.75" y="551" as="sourcePoint" />
            <mxPoint x="1398.75" y="501" as="targetPoint" />
          </mxGeometry>
        </mxCell>
        <mxCell id="FucfDuxgneH0r0DStQZ--43" value="" style="edgeStyle=segmentEdgeStyle;endArrow=classic;html=1;curved=0;rounded=0;endSize=8;startSize=8;exitX=-0.047;exitY=0.826;exitDx=0;exitDy=0;exitPerimeter=0;" edge="1" parent="1" source="FucfDuxgneH0r0DStQZ--40" target="FucfDuxgneH0r0DStQZ--19">
          <mxGeometry width="50" height="50" relative="1" as="geometry">
            <mxPoint x="1280.75" y="553" as="sourcePoint" />
            <mxPoint x="1408.75" y="424" as="targetPoint" />
          </mxGeometry>
        </mxCell>
        <mxCell id="FucfDuxgneH0r0DStQZ--44" value="现场数据&lt;div&gt;采集服务器&lt;/div&gt;" style="verticalLabelPosition=bottom;aspect=fixed;html=1;verticalAlign=top;strokeColor=none;shape=mxgraph.citrix.proxy_server;fillColor=#66B2FF;gradientColor=#0066CC;fontSize=18;" vertex="1" parent="1">
          <mxGeometry x="280" y="290" width="76.5" height="90" as="geometry" />
        </mxCell>
        <mxCell id="FucfDuxgneH0r0DStQZ--45" value="KVM一体显示切换" style="verticalLabelPosition=bottom;sketch=0;aspect=fixed;html=1;verticalAlign=top;strokeColor=none;align=center;outlineConnect=0;shape=mxgraph.citrix.thin_client;fontSize=16;" vertex="1" parent="1">
          <mxGeometry x="1548.75" y="311" width="71" height="71" as="geometry" />
        </mxCell>
        <mxCell id="FucfDuxgneH0r0DStQZ--46" value="服务器UPS" style="verticalLabelPosition=bottom;sketch=0;aspect=fixed;html=1;verticalAlign=top;strokeColor=none;align=center;outlineConnect=0;shape=mxgraph.citrix.netscaler_sdx;fontSize=16;" vertex="1" parent="1">
          <mxGeometry x="1537.75" y="153" width="100" height="47.5" as="geometry" />
        </mxCell>
        <mxCell id="FucfDuxgneH0r0DStQZ--47" value="电力供应" style="shape=singleArrow;direction=west;whiteSpace=wrap;html=1;fillColor=#d5e8d4;strokeColor=#82b366;" vertex="1" parent="1">
          <mxGeometry x="1476.75" y="146.75" width="69" height="60" as="geometry" />
        </mxCell>
        <mxCell id="FucfDuxgneH0r0DStQZ--48" value="管理控制" style="shape=singleArrow;direction=west;whiteSpace=wrap;html=1;fillColor=#d5e8d4;strokeColor=#82b366;" vertex="1" parent="1">
          <mxGeometry x="1479.75" y="313.5" width="69" height="60" as="geometry" />
        </mxCell>
        <mxCell id="FucfDuxgneH0r0DStQZ--49" value="存储" style="verticalLabelPosition=bottom;sketch=0;aspect=fixed;html=1;verticalAlign=top;strokeColor=none;align=center;outlineConnect=0;shape=mxgraph.citrix.remote_office;fontSize=16;" vertex="1" parent="1">
          <mxGeometry x="1548.75" y="469.25" width="92" height="41.5" as="geometry" />
        </mxCell>
        <mxCell id="FucfDuxgneH0r0DStQZ--50" value="存储支持" style="shape=singleArrow;direction=west;whiteSpace=wrap;html=1;fillColor=#d5e8d4;strokeColor=#82b366;" vertex="1" parent="1">
          <mxGeometry x="1479.75" y="460" width="69" height="60" as="geometry" />
        </mxCell>
        <mxCell id="FucfDuxgneH0r0DStQZ--52" value="网络交换" style="shape=doubleArrow;whiteSpace=wrap;html=1;fillColor=#d5e8d4;strokeColor=#82b366;fontSize=16;" vertex="1" parent="1">
          <mxGeometry x="935" y="301" width="95" height="98" as="geometry" />
        </mxCell>
      </root>
    </mxGraphModel>
  </diagram>
</mxfile>
